<svg width="20" height="20" viewBox="0 0 20 20" fill="none" xmlns="http://www.w3.org/2000/svg">
<g opacity="0.7">
<path d="M14.1667 15.3584H10.8334L7.12501 17.825C6.57501 18.1917 5.83335 17.8001 5.83335 17.1334V15.3584C3.33335 15.3584 1.66669 13.6917 1.66669 11.1917V6.19169C1.66669 3.69169 3.33335 2.02502 5.83335 2.02502H14.1667C16.6667 2.02502 18.3334 3.69169 18.3334 6.19169V11.1917C18.3334 13.6917 16.6667 15.3584 14.1667 15.3584Z" stroke="#003832" stroke-width="1.28" stroke-miterlimit="10" stroke-linecap="round" stroke-linejoin="round"/>
<path d="M9.99995 9.46668V9.29171C9.99995 8.72504 10.35 8.42503 10.7 8.18336C11.0416 7.95003 11.3833 7.65004 11.3833 7.10004C11.3833 6.33337 10.7666 5.71667 9.99995 5.71667C9.23328 5.71667 8.61664 6.33337 8.61664 7.10004" stroke="#003832" stroke-width="1.28" stroke-linecap="round" stroke-linejoin="round"/>
<path d="M9.99623 11.4583H10.0037" stroke="#003832" stroke-width="1.28" stroke-linecap="round" stroke-linejoin="round"/>
</g>
</svg>
