<svg width="28" height="28" viewBox="0 0 28 28" fill="none" xmlns="http://www.w3.org/2000/svg">
<path d="M25.375 9.3333C25.375 9.81164 24.9783 10.2083 24.5 10.2083H3.5C3.02167 10.2083 2.625 9.81164 2.625 9.3333C2.625 8.85497 3.02167 8.4583 3.5 8.4583H4.69L5.13333 6.34664C5.55333 4.30497 6.42833 2.42664 9.905 2.42664H18.095C21.5717 2.42664 22.4467 4.30497 22.8667 6.34664L23.31 8.4583H24.5C24.9783 8.4583 25.375 8.85497 25.375 9.3333Z" fill="#EDCB51"/>
<path d="M25.8766 15.9367C25.7016 14.0117 25.1883 11.9584 21.4433 11.9584H6.5566C2.8116 11.9584 2.30993 14.0117 2.12327 15.9367L1.46993 23.0417C1.38827 23.9284 1.67993 24.815 2.2866 25.48C2.90493 26.1567 3.77993 26.5417 4.71327 26.5417H6.9066C8.7966 26.5417 9.15827 25.4567 9.3916 24.745L9.62494 24.045C9.89327 23.24 9.96327 23.0417 11.0133 23.0417H16.9866C18.0366 23.0417 18.0716 23.1584 18.3749 24.045L18.6083 24.745C18.8416 25.4567 19.2033 26.5417 21.0933 26.5417H23.2866C24.2083 26.5417 25.0949 26.1567 25.7133 25.48C26.3199 24.815 26.6116 23.9284 26.5299 23.0417L25.8766 15.9367ZM10.4999 18.375H6.99994C6.5216 18.375 6.12494 17.9784 6.12494 17.5C6.12494 17.0217 6.5216 16.625 6.99994 16.625H10.4999C10.9783 16.625 11.3749 17.0217 11.3749 17.5C11.3749 17.9784 10.9783 18.375 10.4999 18.375ZM20.9999 18.375H17.4999C17.0216 18.375 16.6249 17.9784 16.6249 17.5C16.6249 17.0217 17.0216 16.625 17.4999 16.625H20.9999C21.4783 16.625 21.8749 17.0217 21.8749 17.5C21.8749 17.9784 21.4783 18.375 20.9999 18.375Z" fill="#EDCB51"/>
</svg>
