<svg width="28" height="28" viewBox="0 0 28 28" fill="none" xmlns="http://www.w3.org/2000/svg">
<path d="M8.92501 24.395C8.89001 24.395 8.84334 24.4184 8.80834 24.4184C6.54501 23.2984 4.70167 21.4434 3.57001 19.18C3.57001 19.145 3.59334 19.0984 3.59334 19.0634C5.01667 19.4834 6.48667 19.7984 7.94501 20.0434C8.20167 21.5134 8.50501 22.9717 8.92501 24.395Z" fill="#EDCB51"/>
<path d="M24.43 19.1917C23.275 21.5134 21.35 23.3917 19.005 24.5234C19.4483 23.0417 19.8217 21.5484 20.0667 20.0434C21.5367 19.7984 22.9833 19.4834 24.4067 19.0634C24.395 19.11 24.43 19.1567 24.43 19.1917Z" fill="#EDCB51"/>
<path d="M24.5233 8.99502C23.0533 8.55168 21.5717 8.19002 20.0667 7.93335C19.8217 6.42835 19.46 4.93502 19.005 3.47668C21.42 4.63168 23.3683 6.58002 24.5233 8.99502Z" fill="#EDCB51"/>
<path d="M8.925 3.60495C8.505 5.02828 8.20167 6.47495 7.95667 7.94495C6.45167 8.17828 4.95834 8.55161 3.47667 8.99495C4.60834 6.64995 6.48667 4.72495 8.80834 3.56995C8.84334 3.56995 8.89 3.60495 8.925 3.60495Z" fill="#EDCB51"/>
<path d="M18.0717 7.68837C15.365 7.38504 12.635 7.38504 9.92833 7.68837C10.22 6.09004 10.5933 4.49171 11.1183 2.95171C11.1417 2.85837 11.13 2.78837 11.1417 2.69504C12.0633 2.47337 13.0083 2.33337 14 2.33337C14.98 2.33337 15.9367 2.47337 16.8467 2.69504C16.8583 2.78837 16.8583 2.85837 16.8817 2.95171C17.4067 4.50337 17.78 6.09004 18.0717 7.68837Z" fill="#EDCB51"/>
<path d="M7.68833 18.0717C6.07833 17.78 4.49166 17.4067 2.95166 16.8817C2.85833 16.8583 2.78833 16.87 2.69499 16.8583C2.47333 15.9367 2.33333 14.9917 2.33333 14C2.33333 13.02 2.47333 12.0633 2.69499 11.1533C2.78833 11.1417 2.85833 11.1417 2.95166 11.1183C4.50333 10.605 6.07833 10.22 7.68833 9.92834C7.39666 12.635 7.39666 15.365 7.68833 18.0717Z" fill="#EDCB51"/>
<path d="M25.6667 14C25.6667 14.9917 25.5267 15.9367 25.305 16.8583C25.2117 16.87 25.1417 16.8583 25.0483 16.8817C23.4967 17.395 21.91 17.78 20.3117 18.0717C20.615 15.365 20.615 12.635 20.3117 9.92834C21.91 10.22 23.5083 10.5933 25.0483 11.1183C25.1417 11.1417 25.2117 11.1533 25.305 11.1533C25.5267 12.075 25.6667 13.02 25.6667 14Z" fill="#EDCB51"/>
<path d="M18.0717 20.3116C17.78 21.9216 17.4067 23.5083 16.8817 25.0483C16.8583 25.1416 16.8583 25.2116 16.8467 25.305C15.9367 25.5266 14.98 25.6666 14 25.6666C13.0083 25.6666 12.0633 25.5266 11.1417 25.305C11.13 25.2116 11.1417 25.1416 11.1183 25.0483C10.605 23.4966 10.22 21.9216 9.92833 20.3116C11.2817 20.4633 12.635 20.5683 14 20.5683C15.365 20.5683 16.73 20.4633 18.0717 20.3116Z" fill="#EDCB51"/>
<path d="M18.3905 18.3906C15.4726 18.7587 12.5274 18.7587 9.60944 18.3906C9.24129 15.4726 9.24129 12.5274 9.60944 9.60949C12.5274 9.24134 15.4726 9.24134 18.3905 9.60949C18.7587 12.5274 18.7587 15.4726 18.3905 18.3906Z" fill="#EDCB51"/>
</svg>
