<svg width="28" height="28" viewBox="0 0 28 28" fill="none" xmlns="http://www.w3.org/2000/svg">
<path d="M3.23166 11.6667C2.72999 11.6667 2.33333 11.27 2.33333 10.7684V8.07337C2.33333 4.91171 4.91166 2.33337 8.07333 2.33337H10.7683C11.27 2.33337 11.6667 2.73004 11.6667 3.23171C11.6667 3.73337 11.27 4.13004 10.7683 4.13004H8.07333C5.89166 4.13004 4.12999 5.90337 4.12999 8.07337V10.7684C4.12999 11.27 3.72166 11.6667 3.23166 11.6667Z" fill="#EDCB51"/>
<path d="M24.7683 11.6667C24.2783 11.6667 23.87 11.27 23.87 10.7684V8.07337C23.87 5.89171 22.0967 4.13004 19.9267 4.13004H17.2317C16.73 4.13004 16.3333 3.72171 16.3333 3.23171C16.3333 2.74171 16.73 2.33337 17.2317 2.33337H19.9267C23.0883 2.33337 25.6667 4.91171 25.6667 8.07337V10.7684C25.6667 11.27 25.27 11.6667 24.7683 11.6667Z" fill="#EDCB51"/>
<path d="M19.9267 25.6667H18.305C17.815 25.6667 17.4067 25.27 17.4067 24.7683C17.4067 24.2783 17.8033 23.87 18.305 23.87H19.9267C22.1083 23.87 23.87 22.0967 23.87 19.9267V18.3167C23.87 17.8267 24.2667 17.4183 24.7683 17.4183C25.2583 17.4183 25.6667 17.815 25.6667 18.3167V19.9267C25.6667 23.0883 23.0883 25.6667 19.9267 25.6667Z" fill="#EDCB51"/>
<path d="M10.7683 25.6667H8.07333C4.91166 25.6667 2.33333 23.0884 2.33333 19.9267V17.2317C2.33333 16.73 2.72999 16.3334 3.23166 16.3334C3.73333 16.3334 4.12999 16.73 4.12999 17.2317V19.9267C4.12999 22.1084 5.90333 23.87 8.07333 23.87H10.7683C11.2583 23.87 11.6667 24.2667 11.6667 24.7684C11.6667 25.27 11.27 25.6667 10.7683 25.6667Z" fill="#EDCB51"/>
<path d="M21.5367 13.1017H19.95H8.05H6.46334C5.96167 13.1017 5.565 13.51 5.565 14C5.565 14.49 5.96167 14.8984 6.46334 14.8984H8.05H19.95H21.5367C22.0383 14.8984 22.435 14.49 22.435 14C22.435 13.51 22.0383 13.1017 21.5367 13.1017Z" fill="#EDCB51"/>
<path d="M8.05 16.2633V16.6483C8.05 18.585 9.61334 20.1483 11.55 20.1483H16.45C18.3867 20.1483 19.95 18.585 19.95 16.6483V16.2633C19.95 16.1233 19.845 16.0183 19.705 16.0183H8.295C8.155 16.0183 8.05 16.1233 8.05 16.2633Z" fill="#EDCB51"/>
<path d="M8.05 11.7367V11.3517C8.05 9.41502 9.61334 7.85168 11.55 7.85168H16.45C18.3867 7.85168 19.95 9.41502 19.95 11.3517V11.7367C19.95 11.8767 19.845 11.9817 19.705 11.9817H8.295C8.155 11.9817 8.05 11.8767 8.05 11.7367Z" fill="#EDCB51"/>
</svg>
