<svg width="28" height="28" viewBox="0 0 28 28" fill="none" xmlns="http://www.w3.org/2000/svg">
<path d="M22.7967 7.63004L19.215 4.04837C18.1183 2.95171 16.6367 2.33337 15.085 2.33337H9.33333C5.83333 2.33337 3.5 4.66671 3.5 8.16671V19.8334C3.5 23.3334 5.83333 25.6667 9.33333 25.6667H18.6667C22.1667 25.6667 24.5 23.3334 24.5 19.8334V11.7484C24.5 10.1967 23.8817 8.71504 22.7967 7.63004ZM13.4167 21.1567C13.4167 21.3924 13.2256 21.5834 12.99 21.5834H11.6667C9.74167 21.5834 8.16667 20.0084 8.16667 18.0834V17.3434C8.16667 17.1077 8.35769 16.9167 8.59333 16.9167H13.125C13.2883 16.9167 13.4167 17.045 13.4167 17.2084V21.1567ZM13.4167 15.4584C13.4167 15.6217 13.2883 15.75 13.125 15.75H8.59333C8.35769 15.75 8.16667 15.559 8.16667 15.3234V14.5834C8.16667 12.6584 9.74167 11.0834 11.6667 11.0834H12.99C13.2256 11.0834 13.4167 11.2744 13.4167 11.51V15.4584ZM19.8333 18.0834C19.8333 20.0084 18.2583 21.5834 16.3333 21.5834H15.01C14.7744 21.5834 14.5833 21.3923 14.5833 21.1567V17.2084C14.5833 17.045 14.7117 16.9167 14.875 16.9167H19.4067C19.6423 16.9167 19.8333 17.1077 19.8333 17.3434V18.0834ZM19.8333 15.3234C19.8333 15.559 19.6423 15.75 19.4067 15.75H14.875C14.7117 15.75 14.5833 15.6217 14.5833 15.4584V11.51C14.5833 11.2744 14.7744 11.0834 15.01 11.0834H16.3333C18.2583 11.0834 19.8333 12.6584 19.8333 14.5834V15.3234Z" fill="#EDCB51"/>
</svg>
