<svg width="24" height="24" viewBox="0 0 24 24" fill="none" xmlns="http://www.w3.org/2000/svg">
<path d="M12.0002 14.88C11.0902 14.88 10.3502 14.14 10.3502 13.23V10.76C10.3502 9.85001 11.0902 9.10999 12.0002 9.10999C12.9102 9.10999 13.6502 9.85001 13.6502 10.76V13.23C13.6502 14.14 12.9102 14.88 12.0002 14.88Z" stroke="#003832" stroke-opacity="0.7" stroke-width="1.28571" stroke-linecap="round"/>
<path d="M16.9799 13.47C16.7799 16.05 14.6199 18.0701 11.9999 18.0701C9.23988 18.0701 6.99988 15.8301 6.99988 13.0701V10.9301C6.99988 8.17005 9.23988 5.93005 11.9999 5.93005C14.5899 5.93005 16.7199 7.90004 16.9699 10.42" stroke="#003832" stroke-opacity="0.7" stroke-width="1.28571" stroke-linecap="round"/>
<path d="M15 2H17C20 2 22 4 22 7V9" stroke="#003832" stroke-opacity="0.7" stroke-width="1.28571" stroke-miterlimit="10" stroke-linecap="round" stroke-linejoin="round"/>
<path d="M2.00012 9V7C2.00012 4 4.00012 2 7.00012 2H9.00012" stroke="#003832" stroke-opacity="0.7" stroke-width="1.28571" stroke-miterlimit="10" stroke-linecap="round" stroke-linejoin="round"/>
<path d="M15 22H17C20 22 22 20 22 17V15" stroke="#003832" stroke-opacity="0.7" stroke-width="1.28571" stroke-miterlimit="10" stroke-linecap="round" stroke-linejoin="round"/>
<path d="M2.00012 15V17C2.00012 20 4.00012 22 7.00012 22H9.00012" stroke="#003832" stroke-opacity="0.7" stroke-width="1.28571" stroke-miterlimit="10" stroke-linecap="round" stroke-linejoin="round"/>
</svg>
