<svg width="28" height="28" viewBox="0 0 28 28" fill="none" xmlns="http://www.w3.org/2000/svg">
<path d="M19.8333 4.08337H8.16667C4.66667 4.08337 2.33333 5.83337 2.33333 9.91671V18.0834C2.33333 22.1667 4.66667 23.9167 8.16667 23.9167H19.8333C23.3333 23.9167 25.6667 22.1667 25.6667 18.0834V9.91671C25.6667 5.83337 23.3333 4.08337 19.8333 4.08337ZM7.875 18.6667C7.875 19.145 7.47833 19.5417 7 19.5417C6.52167 19.5417 6.125 19.145 6.125 18.6667V9.33337C6.125 8.85504 6.52167 8.45837 7 8.45837C7.47833 8.45837 7.875 8.85504 7.875 9.33337V18.6667ZM11.375 18.6667C11.375 19.145 10.9783 19.5417 10.5 19.5417C10.0217 19.5417 9.625 19.145 9.625 18.6667V17.5C9.625 17.0217 10.0217 16.625 10.5 16.625C10.9783 16.625 11.375 17.0217 11.375 17.5V18.6667ZM11.375 14C11.375 14.4784 10.9783 14.875 10.5 14.875C10.0217 14.875 9.625 14.4784 9.625 14V9.33337C9.625 8.85504 10.0217 8.45837 10.5 8.45837C10.9783 8.45837 11.375 8.85504 11.375 9.33337V14ZM14.875 18.6667C14.875 19.145 14.4783 19.5417 14 19.5417C13.5217 19.5417 13.125 19.145 13.125 18.6667V9.33337C13.125 8.85504 13.5217 8.45837 14 8.45837C14.4783 8.45837 14.875 8.85504 14.875 9.33337V18.6667ZM18.375 18.6667C18.375 19.145 17.9783 19.5417 17.5 19.5417C17.0217 19.5417 16.625 19.145 16.625 18.6667V14C16.625 13.5217 17.0217 13.125 17.5 13.125C17.9783 13.125 18.375 13.5217 18.375 14V18.6667ZM18.375 10.5C18.375 10.9784 17.9783 11.375 17.5 11.375C17.0217 11.375 16.625 10.9784 16.625 10.5V9.33337C16.625 8.85504 17.0217 8.45837 17.5 8.45837C17.9783 8.45837 18.375 8.85504 18.375 9.33337V10.5ZM21.875 18.6667C21.875 19.145 21.4783 19.5417 21 19.5417C20.5217 19.5417 20.125 19.145 20.125 18.6667V9.33337C20.125 8.85504 20.5217 8.45837 21 8.45837C21.4783 8.45837 21.875 8.85504 21.875 9.33337V18.6667Z" fill="#EDCB51"/>
</svg>
